<?xml version="1.0" encoding="UTF-8" standalone="no"?>
<!-- Created with Inkscape (http://www.inkscape.org/) -->

<svg
   xmlns:dc="http://purl.org/dc/elements/1.1/"
   xmlns:cc="http://creativecommons.org/ns#"
   xmlns:rdf="http://www.w3.org/1999/02/22-rdf-syntax-ns#"
   xmlns:svg="http://www.w3.org/2000/svg"
   xmlns="http://www.w3.org/2000/svg"
   xmlns:sodipodi="http://sodipodi.sourceforge.net/DTD/sodipodi-0.dtd"
   xmlns:inkscape="http://www.inkscape.org/namespaces/inkscape"
   width="352"
   height="400"
   viewBox="0 0 352 400.00001"
   id="svg5361"
   version="1.1"
   inkscape:version="0.91 r13725"
   sodipodi:docname="otterside-tiles.svg"
   inkscape:export-filename="C:\Users\Daniel\Documents\Otterside\otterside_tiles.png"
   inkscape:export-xdpi="90"
   inkscape:export-ydpi="90"
   style="shape-rendering:crispEdges"
   shape-rendering="crispEdges">
  <defs
     id="defs5363" />
  <sodipodi:namedview
     id="base"
     pagecolor="#ffffff"
     bordercolor="#666666"
     borderopacity="1.0"
     inkscape:pageopacity="0.0"
     inkscape:pageshadow="2"
     inkscape:zoom="11.339043"
     inkscape:cx="117.19251"
     inkscape:cy="354.55703"
     inkscape:document-units="px"
     inkscape:current-layer="layer1"
     showgrid="true"
     units="px"
     inkscape:window-width="1366"
     inkscape:window-height="705"
     inkscape:window-x="-8"
     inkscape:window-y="-8"
     inkscape:window-maximized="1"
     inkscape:snap-bbox="true"
     inkscape:bbox-nodes="false"
     inkscape:object-nodes="true"
     inkscape:snap-intersection-paths="false"
     inkscape:snap-smooth-nodes="false"
     inkscape:object-paths="false"
     inkscape:snap-object-midpoints="false"
     inkscape:snap-bbox-midpoints="false"
     inkscape:snap-bbox-edge-midpoints="false"
     inkscape:bbox-paths="true"
     inkscape:snap-midpoints="false"
     inkscape:snap-global="false"
     inkscape:snap-grids="true"
     inkscape:snap-to-guides="true">
    <inkscape:grid
       type="xygrid"
       id="grid3617"
       empspacing="8"
       spacingx="2"
       spacingy="2"
       originy="16"
       dotted="false"
       empcolor="#3f3fff"
       empopacity="0.45882353" />
  </sodipodi:namedview>
  <metadata
     id="metadata5366">
    <rdf:RDF>
      <cc:Work
         rdf:about="">
        <dc:format>image/svg+xml</dc:format>
        <dc:type
           rdf:resource="http://purl.org/dc/dcmitype/StillImage" />
        <dc:title></dc:title>
      </cc:Work>
    </rdf:RDF>
  </metadata>
  <g
     inkscape:label="Ebene 1"
     inkscape:groupmode="layer"
     id="layer1"
     transform="translate(0,-652.36216)">
    <g
       id="g4458"
       transform="matrix(0.99999991,-1,0.99999991,1,-668.36211,47.999977)">
      <path
         style="fill:#1f6d2f;fill-opacity:1;fill-rule:evenodd;stroke:none;stroke-width:0;stroke-linecap:butt;stroke-linejoin:miter;stroke-miterlimit:4;stroke-dasharray:none;stroke-opacity:1"
         d="m 31.999999,668.36217 16,-16 15.999999,16 -15.999999,16 z"
         id="path4135"
         inkscape:connector-curvature="0" />
      <path
         sodipodi:nodetypes="ccccc"
         inkscape:connector-curvature="0"
         id="path4137"
         d="m 41.999999,658.36217 16,16 -4,4 -16,-16 z"
         style="fill:#54905a;fill-opacity:1;fill-rule:evenodd;stroke:none;stroke-width:0;stroke-linecap:butt;stroke-linejoin:miter;stroke-miterlimit:4;stroke-dasharray:none;stroke-opacity:1" />
    </g>
    <g
       id="g4462"
       transform="matrix(1,-0.99999999,1,0.99999999,-668.36217,80.000001)">
      <g
         id="g4356">
        <path
           inkscape:connector-curvature="0"
           id="path4143"
           d="m 63.999998,668.36217 16,-16 15.999999,16 -15.999999,16 z"
           style="fill:#1f6d2f;fill-opacity:1;fill-rule:evenodd;stroke:none;stroke-width:1px;stroke-linecap:butt;stroke-linejoin:miter;stroke-opacity:1" />
        <path
           sodipodi:nodetypes="ccccc"
           style="fill:#54905a;fill-opacity:1;fill-rule:evenodd;stroke:none;stroke-width:1px;stroke-linecap:butt;stroke-linejoin:miter;stroke-opacity:1"
           d="m 89.999998,662.36217 -16,16 -4,-4 16,-16 z"
           id="path4145"
           inkscape:connector-curvature="0" />
      </g>
    </g>
    <g
       id="g4496"
       transform="matrix(0.99999989,-0.99999999,0.99999989,0.99999999,-668.36206,240)">
      <path
         style="opacity:1;fill:#1f6d2f;fill-opacity:1;fill-rule:evenodd;stroke:none;stroke-width:0.1;stroke-linecap:butt;stroke-linejoin:miter;stroke-miterlimit:4;stroke-dasharray:none;stroke-opacity:1"
         d="m 223.99999,668.36217 16,-16 16,16 -16,16 z"
         id="path4194"
         inkscape:connector-curvature="0"
         inkscape:export-xdpi="90"
         inkscape:export-ydpi="90" />
      <path
         inkscape:connector-curvature="0"
         id="path4196"
         d="m 229.99999,662.36217 4,-4 6,6 0,8 -6,6 -4,-4 5,-5 0,-2 z"
         style="fill:#54905a;fill-opacity:1;fill-rule:evenodd;stroke:none;stroke-width:1px;stroke-linecap:butt;stroke-linejoin:miter;stroke-opacity:1"
         sodipodi:nodetypes="ccccccccc" />
    </g>
    <g
       id="g4502"
       transform="matrix(0.99999997,-1.0000001,0.99999997,1.0000001,-668.36213,271.99996)">
      <path
         sodipodi:nodetypes="ccccc"
         style="opacity:1;fill:#1f6d2f;fill-opacity:1;fill-rule:evenodd;stroke:none;stroke-width:0.1;stroke-linecap:butt;stroke-linejoin:miter;stroke-miterlimit:4;stroke-dasharray:none;stroke-opacity:1"
         d="m 255.99999,668.36217 16,-16 16,16 -16,16 z"
         id="path4206"
         inkscape:connector-curvature="0"
         inkscape:export-xdpi="90"
         inkscape:export-ydpi="90" />
      <path
         sodipodi:nodetypes="ccccccccc"
         inkscape:connector-curvature="0"
         id="path4214"
         d="m 261.99999,662.36217 4,4 12,0 4,-4 -4,-4 -3,3 -6,0 -3,-3 z"
         style="fill:#54905a;fill-opacity:1;fill-rule:evenodd;stroke:none;stroke-width:1px;stroke-linecap:butt;stroke-linejoin:miter;stroke-opacity:1" />
    </g>
    <g
       id="g4510"
       transform="matrix(0.99999991,-1.0000001,0.99999991,1.0000001,-668.36207,303.99995)">
      <path
         inkscape:export-ydpi="90"
         inkscape:export-xdpi="90"
         inkscape:connector-curvature="0"
         id="path4208"
         d="m 287.99999,668.36217 16,-16 16,16 -16,16 z"
         style="opacity:1;fill:#1f6d2f;fill-opacity:1;fill-rule:evenodd;stroke:none;stroke-width:0.1;stroke-linecap:butt;stroke-linejoin:miter;stroke-miterlimit:4;stroke-dasharray:none;stroke-opacity:1" />
      <path
         sodipodi:nodetypes="ccccccccc"
         inkscape:connector-curvature="0"
         id="path4220"
         d="m 308.99999,669.36217 0,-2 5,-5 -4,-4 -6,6 0,8 6,6 4,-4 z"
         style="fill:#54905a;fill-opacity:1;fill-rule:evenodd;stroke:none;stroke-width:1px;stroke-linecap:butt;stroke-linejoin:miter;stroke-opacity:1" />
    </g>
    <g
       id="g4474"
       transform="matrix(0.99999976,-1.0000001,0.99999976,1.0000001,-668.36192,335.99997)">
      <g
         id="g4478">
        <path
           inkscape:export-ydpi="90"
           inkscape:export-xdpi="90"
           inkscape:connector-curvature="0"
           id="path4210"
           d="m 319.99999,668.36217 16,-16 16,16 -16,16 z"
           style="opacity:1;fill:#1f6d2f;fill-opacity:1;fill-rule:evenodd;stroke:none;stroke-width:0.1;stroke-linecap:butt;stroke-linejoin:miter;stroke-miterlimit:4;stroke-dasharray:none;stroke-opacity:1" />
        <path
           style="fill:#54905a;fill-opacity:1;fill-rule:evenodd;stroke:none;stroke-width:1px;stroke-linecap:butt;stroke-linejoin:miter;stroke-opacity:1"
           d="m 326.00001,674.36215 8.00001,-8 3.99998,0 8.00001,8 -3.99999,4.00001 -5.00001,-5 -2.00001,0 -4.99999,5 z"
           id="path4226"
           inkscape:connector-curvature="0"
           sodipodi:nodetypes="ccccccccc" />
      </g>
    </g>
    <g
       id="g4479"
       transform="matrix(-0.99999986,-0.99999986,0.99999986,-0.99999986,-316.3621,1512.7242)">
      <g
         id="g4368">
        <path
           inkscape:connector-curvature="0"
           id="path4155"
           d="m 160,668.36217 16.00001,-16 16,16 -16,16 z"
           style="fill:#1f6d2f;fill-opacity:1;fill-rule:evenodd;stroke:none;stroke-width:1px;stroke-linecap:butt;stroke-linejoin:miter;stroke-opacity:1" />
        <path
           sodipodi:nodetypes="ccccc"
           style="fill:#54905a;fill-opacity:1;fill-rule:evenodd;stroke:none;stroke-width:1px;stroke-linecap:butt;stroke-linejoin:miter;stroke-opacity:1"
           d="m 186,674.36217 -4,-4 -4,4 4,4 z"
           id="path4163"
           inkscape:connector-curvature="0" />
      </g>
      <path
         inkscape:connector-curvature="0"
         id="path4456"
         d="m 178,674.36217 -7,-7 4,-4 7,7 z"
         style="fill:#fcd079;fill-opacity:1;fill-rule:evenodd;stroke:none;stroke-width:1px;stroke-linecap:butt;stroke-linejoin:miter;stroke-opacity:1" />
    </g>
    <g
       id="g6061"
       transform="matrix(0.70710678,-0.70710678,0.70710678,0.70710678,-490.13033,215.44504)" />
    <path
       style="fill:#1f6d2f;fill-rule:evenodd;stroke:none;stroke-width:1px;stroke-linecap:butt;stroke-linejoin:miter;stroke-opacity:1;fill-opacity:1"
       d="m 0,652.36217 32,0 0,32 -32,0 z"
       id="path3619"
       inkscape:connector-curvature="0" />
    <g
       transform="matrix(0.99999986,0.99999986,-0.99999986,0.99999986,700.36209,-175.99988)"
       id="g5061">
      <g
         id="g5063">
        <path
           style="fill:#1f6d2f;fill-opacity:1;fill-rule:evenodd;stroke:none;stroke-width:1px;stroke-linecap:butt;stroke-linejoin:miter;stroke-opacity:1"
           d="m 160,668.36217 16.00001,-16 16,16 -16,16 z"
           id="path5065"
           inkscape:connector-curvature="0" />
        <path
           inkscape:connector-curvature="0"
           id="path5067"
           d="m 186,674.36217 -4,-4 -4,4 4,4 z"
           style="fill:#54905a;fill-opacity:1;fill-rule:evenodd;stroke:none;stroke-width:1px;stroke-linecap:butt;stroke-linejoin:miter;stroke-opacity:1"
           sodipodi:nodetypes="ccccc" />
      </g>
      <path
         style="fill:#fcd079;fill-opacity:1;fill-rule:evenodd;stroke:none;stroke-width:1px;stroke-linecap:butt;stroke-linejoin:miter;stroke-opacity:1"
         d="m 178,674.36217 -7,-7 4,-4 7,7 z"
         id="path5069"
         inkscape:connector-curvature="0" />
    </g>
    <g
       transform="matrix(-0.99999989,0.99999989,-0.99999989,-0.99999989,956.36211,1160.7243)"
       id="g5071">
      <g
         id="g5073">
        <path
           style="fill:#1f6d2f;fill-opacity:1;fill-rule:evenodd;stroke:none;stroke-width:1px;stroke-linecap:butt;stroke-linejoin:miter;stroke-opacity:1"
           d="m 160,668.36217 16.00001,-16 16,16 -16,16 z"
           id="path5075"
           inkscape:connector-curvature="0" />
        <path
           inkscape:connector-curvature="0"
           id="path5077"
           d="m 186,674.36217 -4,-4 -4,4 4,4 z"
           style="fill:#54905a;fill-opacity:1;fill-rule:evenodd;stroke:none;stroke-width:1px;stroke-linecap:butt;stroke-linejoin:miter;stroke-opacity:1"
           sodipodi:nodetypes="ccccc" />
      </g>
      <path
         style="fill:#fcd079;fill-opacity:1;fill-rule:evenodd;stroke:none;stroke-width:1px;stroke-linecap:butt;stroke-linejoin:miter;stroke-opacity:1"
         d="m 178,674.36217 -7,-7 4,-4 7,7 z"
         id="path5079"
         inkscape:connector-curvature="0" />
    </g>
    <g
       id="g5081"
       transform="matrix(0.99999986,-0.99999986,0.99999986,0.99999986,-700.36205,176.00007)">
      <g
         id="g5083">
        <path
           inkscape:connector-curvature="0"
           id="path5085"
           d="m 160,668.36217 16.00001,-16 16,16 -16,16 z"
           style="fill:#1f6d2f;fill-opacity:1;fill-rule:evenodd;stroke:none;stroke-width:1px;stroke-linecap:butt;stroke-linejoin:miter;stroke-opacity:1" />
        <path
           sodipodi:nodetypes="ccccc"
           style="fill:#54905a;fill-opacity:1;fill-rule:evenodd;stroke:none;stroke-width:1px;stroke-linecap:butt;stroke-linejoin:miter;stroke-opacity:1"
           d="m 186,674.36217 -4,-4 -4,4 4,4 z"
           id="path5087"
           inkscape:connector-curvature="0" />
      </g>
      <path
         inkscape:connector-curvature="0"
         id="path5089"
         d="m 178,674.36217 -7,-7 4,-4 7,7 z"
         style="fill:#fcd079;fill-opacity:1;fill-rule:evenodd;stroke:none;stroke-width:1px;stroke-linecap:butt;stroke-linejoin:miter;stroke-opacity:1" />
    </g>
    <g
       id="g4188"
       transform="translate(0,-3.251253e-6)">
      <path
         sodipodi:nodetypes="ccccc"
         inkscape:connector-curvature="0"
         id="path4427"
         d="m 22,686.36217 -9,9 0,14 9,-9 z"
         style="fill:#505050;fill-opacity:1;fill-rule:evenodd;stroke:none;stroke-width:1px;stroke-linecap:butt;stroke-linejoin:miter;stroke-opacity:1" />
      <path
         sodipodi:nodetypes="ccccc"
         inkscape:connector-curvature="0"
         id="path4437"
         d="m 13,709.36217 -3,-5 0,-14 3,5 z"
         style="fill:#282828;fill-opacity:1;fill-rule:evenodd;stroke:none;stroke-width:1px;stroke-linecap:butt;stroke-linejoin:miter;stroke-opacity:1" />
      <path
         sodipodi:nodetypes="ccccc"
         inkscape:connector-curvature="0"
         id="path4439"
         d="m 10,690.36217 4,-4 8,0 -9,9 z"
         style="fill:#646464;fill-opacity:1;fill-rule:evenodd;stroke:none;stroke-width:1px;stroke-linecap:butt;stroke-linejoin:miter;stroke-opacity:1" />
      <g
         transform="matrix(1,0,0,0.9090909,1,63.123842)"
         id="g4445">
        <path
           style="fill:#c8c8c8;fill-opacity:1;fill-rule:evenodd;stroke:none;stroke-width:1px;stroke-linecap:butt;stroke-linejoin:miter;stroke-opacity:1"
           d="m 17,705.36217 0,10 -1,1 0,-10 z"
           id="path4441"
           inkscape:connector-curvature="0"
           sodipodi:nodetypes="ccccc" />
        <path
           style="fill:#a0a0a0;fill-opacity:1;fill-rule:evenodd;stroke:none;stroke-width:1px;stroke-linecap:butt;stroke-linejoin:miter;stroke-opacity:1"
           d="m 16,716.36217 -1,-1 0,-8 1,-1 z"
           id="path4443"
           inkscape:connector-curvature="0" />
      </g>
      <g
         transform="matrix(1,0,0,0.8181818,-2,130.24768)"
         id="g4449">
        <path
           sodipodi:nodetypes="ccccc"
           inkscape:connector-curvature="0"
           id="path4451"
           d="m 17,705.36217 0,10 -1,1 0,-10 z"
           style="fill:#c8c8c8;fill-opacity:1;fill-rule:evenodd;stroke:none;stroke-width:1px;stroke-linecap:butt;stroke-linejoin:miter;stroke-opacity:1" />
        <path
           inkscape:connector-curvature="0"
           id="path4453"
           d="m 16,716.36217 -1,-1 0,-8 1,-1 z"
           style="fill:#a0a0a0;fill-opacity:1;fill-rule:evenodd;stroke:none;stroke-width:1px;stroke-linecap:butt;stroke-linejoin:miter;stroke-opacity:1" />
      </g>
      <g
         id="g4455"
         transform="translate(4,-4.0000013)">
        <path
           style="fill:#c8c8c8;fill-opacity:1;fill-rule:evenodd;stroke:none;stroke-width:1px;stroke-linecap:butt;stroke-linejoin:miter;stroke-opacity:1"
           d="m 17,705.36217 0,10 -1,1 0,-10 z"
           id="path4457"
           inkscape:connector-curvature="0"
           sodipodi:nodetypes="ccccc" />
        <path
           style="fill:#a0a0a0;fill-opacity:1;fill-rule:evenodd;stroke:none;stroke-width:1px;stroke-linecap:butt;stroke-linejoin:miter;stroke-opacity:1"
           d="m 16,716.36217 -1,-1 0,-8 1,-1 z"
           id="path4459"
           inkscape:connector-curvature="0" />
      </g>
    </g>
    <path
       style="fill:#e95d17;fill-opacity:1;fill-rule:evenodd;stroke:none;stroke-width:1px;stroke-linecap:butt;stroke-linejoin:miter;stroke-opacity:1"
       d="m 64,712.36217 0,-4 32,0 0,4 z"
       id="path4251"
       inkscape:connector-curvature="0"
       sodipodi:nodetypes="ccccc" />
    <path
       sodipodi:nodetypes="ccccc"
       inkscape:connector-curvature="0"
       id="path4469"
       d="m 64,702.36217 0,-4 32,0 0,4 z"
       style="fill:#e95d17;fill-opacity:1;fill-rule:evenodd;stroke:none;stroke-width:1px;stroke-linecap:butt;stroke-linejoin:miter;stroke-opacity:1" />
    <path
       style="fill:#e95d17;fill-opacity:1;fill-rule:evenodd;stroke:none;stroke-width:1px;stroke-linecap:butt;stroke-linejoin:miter;stroke-opacity:1"
       d="m 64,692.36217 0,-4 32,0 0,4 z"
       id="path4471"
       inkscape:connector-curvature="0"
       sodipodi:nodetypes="ccccc" />
    <path
       sodipodi:nodetypes="ccccc"
       inkscape:connector-curvature="0"
       id="path4473"
       d="m 42,712.36217 0,-4 22,0 0,4 z"
       style="fill:#e95d17;fill-opacity:1;fill-rule:evenodd;stroke:none;stroke-width:1px;stroke-linecap:butt;stroke-linejoin:miter;stroke-opacity:1" />
    <path
       style="fill:#e95d17;fill-opacity:1;fill-rule:evenodd;stroke:none;stroke-width:1px;stroke-linecap:butt;stroke-linejoin:miter;stroke-opacity:1"
       d="m 42,702.36217 0,-4 22,0 0,4 z"
       id="path4475"
       inkscape:connector-curvature="0"
       sodipodi:nodetypes="ccccc" />
    <path
       sodipodi:nodetypes="ccccc"
       inkscape:connector-curvature="0"
       id="path4477"
       d="m 42,692.36217 0,-4 22,0 0,4 z"
       style="fill:#e95d17;fill-opacity:1;fill-rule:evenodd;stroke:none;stroke-width:1px;stroke-linecap:butt;stroke-linejoin:miter;stroke-opacity:1" />
    <g
       id="g4491"
       transform="matrix(1,0,0,1.0874977,0,-59.996099)">
      <path
         sodipodi:nodetypes="zcczz"
         inkscape:connector-curvature="0"
         id="path4489"
         d="m 42,712.36217 c 0,-2 0,-24 0,-24 l -8,0 c 0,0 0,22 0,24 0,2 8,2 8,0 z"
         style="fill:#505050;fill-opacity:1;fill-rule:evenodd;stroke:none;stroke-width:1px;stroke-linecap:butt;stroke-linejoin:miter;stroke-opacity:1" />
      <ellipse
         cx="38.026268"
         cy="687.95746"
         rx="4"
         ry="2.2703667"
         id="path4485"
         style="fill:#646464;fill-opacity:1;stroke:none;stroke-width:0.5;stroke-miterlimit:4;stroke-dasharray:none;stroke-opacity:1" />
    </g>
    <path
       style="fill:#e95d17;fill-opacity:1;fill-rule:evenodd;stroke:none;stroke-width:1px;stroke-linecap:butt;stroke-linejoin:miter;stroke-opacity:1"
       d="m 96,712.36217 0,-4 22,0 0,4 z"
       id="path4479"
       inkscape:connector-curvature="0"
       sodipodi:nodetypes="ccccc" />
    <path
       sodipodi:nodetypes="ccccc"
       inkscape:connector-curvature="0"
       id="path4481"
       d="m 96,702.36217 0,-4 22,0 0,4 z"
       style="fill:#e95d17;fill-opacity:1;fill-rule:evenodd;stroke:none;stroke-width:1px;stroke-linecap:butt;stroke-linejoin:miter;stroke-opacity:1" />
    <path
       style="fill:#e95d17;fill-opacity:1;fill-rule:evenodd;stroke:none;stroke-width:1px;stroke-linecap:butt;stroke-linejoin:miter;stroke-opacity:1"
       d="m 96,692.36217 0,-4 22,0 0,4 z"
       id="path4483"
       inkscape:connector-curvature="0"
       sodipodi:nodetypes="ccccc" />
    <g
       id="g4495"
       transform="matrix(1,0,0,1.062602,83.870968,-42.234163)">
      <path
         style="fill:#505050;fill-opacity:1;fill-rule:evenodd;stroke:none;stroke-width:1px;stroke-linecap:butt;stroke-linejoin:miter;stroke-opacity:1"
         d="m 42,712.36217 c 0,-2 0,-24 0,-24 l -8,0 c 0,0 0,22 0,24 0,2 8,2 8,0 z"
         id="path4497"
         inkscape:connector-curvature="0"
         sodipodi:nodetypes="zcczz" />
      <ellipse
         style="fill:#646464;fill-opacity:1;stroke:none;stroke-width:0.5;stroke-miterlimit:4;stroke-dasharray:none;stroke-opacity:1"
         id="ellipse4499"
         ry="2.2703667"
         rx="4"
         cy="687.95746"
         cx="38.026268" />
    </g>
  </g>
</svg>
