<?xml version="1.0" encoding="UTF-8" standalone="no"?>
<!-- Created with Inkscape (http://www.inkscape.org/) -->

<svg
   xmlns:dc="http://purl.org/dc/elements/1.1/"
   xmlns:cc="http://creativecommons.org/ns#"
   xmlns:rdf="http://www.w3.org/1999/02/22-rdf-syntax-ns#"
   xmlns:svg="http://www.w3.org/2000/svg"
   xmlns="http://www.w3.org/2000/svg"
   xmlns:sodipodi="http://sodipodi.sourceforge.net/DTD/sodipodi-0.dtd"
   xmlns:inkscape="http://www.inkscape.org/namespaces/inkscape"
   width="210mm"
   height="297mm"
   viewBox="0 0 744.09448819 1052.3622047"
   id="svg2"
   version="1.1"
   inkscape:version="0.91 r13725"
   sodipodi:docname="loading-bar.svg"
   inkscape:export-filename="C:\Users\Daniel\Development\web\otterside\src\web\assets\loading-bar.png"
   inkscape:export-xdpi="90"
   inkscape:export-ydpi="90">
  <defs
     id="defs4" />
  <sodipodi:namedview
     id="base"
     pagecolor="#ffffff"
     bordercolor="#666666"
     borderopacity="1.0"
     inkscape:pageopacity="0.0"
     inkscape:pageshadow="2"
     inkscape:zoom="0.94316065"
     inkscape:cx="200.27524"
     inkscape:cy="818.23865"
     inkscape:document-units="px"
     inkscape:current-layer="layer1"
     showgrid="true"
     inkscape:window-width="1366"
     inkscape:window-height="705"
     inkscape:window-x="-8"
     inkscape:window-y="-8"
     inkscape:window-maximized="1"
     inkscape:snap-global="true">
    <inkscape:grid
       type="xygrid"
       id="grid4149"
       empspacing="10" />
  </sodipodi:namedview>
  <metadata
     id="metadata7">
    <rdf:RDF>
      <cc:Work
         rdf:about="">
        <dc:format>image/svg+xml</dc:format>
        <dc:type
           rdf:resource="http://purl.org/dc/dcmitype/StillImage" />
        <dc:title></dc:title>
      </cc:Work>
    </rdf:RDF>
  </metadata>
  <g
     inkscape:label="Ebene 1"
     inkscape:groupmode="layer"
     id="layer1"
     style="display:inline">
    <g
       id="g4267">
      <g
         transform="translate(-86.261513,-136.04728)"
         id="g4205">
        <path
           style="fill:#7a7a7a;fill-opacity:1;fill-rule:evenodd;stroke:#000000;stroke-width:1px;stroke-linecap:butt;stroke-linejoin:miter;stroke-opacity:1"
           d="m 167.08433,168.2661 c 0,0 15.2528,-29.04058 64.58723,-29.95349 49.33443,-0.91291 60.84303,22.46512 60.84303,22.46512 0,0 12.49834,-7.60897 16.84885,-1.8721 4.3505,5.73688 -9.8285,24.33722 -9.8285,24.33722 0,0 7.37463,14.41823 6.55233,25.27326 -0.8223,10.85503 -13.50352,26.58016 -15.44477,36.0378 -1.94125,9.45764 -1.81767,9.22598 0,18.72093 1.81767,9.49495 14.50872,36.50582 14.50872,36.50582 l -150.23549,-0.46802 c 0,0 11.69593,-28.45161 12.63663,-39.78198 0.9407,-11.33037 -2.55369,-16.45926 -3.74419,-26.20931 -1.1905,-9.75005 -3.27616,-32.29361 -3.27616,-32.29361 0,0 -16.15176,-18.54987 -12.16861,-25.74129 3.98315,-7.19142 18.72093,-7.02035 18.72093,-7.02035 z"
           id="path4197"
           inkscape:connector-curvature="0"
           sodipodi:nodetypes="czczczzzcczzczc" />
        <path
           style="fill:#000000;fill-opacity:1;fill-rule:evenodd;stroke:none;stroke-width:1px;stroke-linecap:butt;stroke-linejoin:miter;stroke-opacity:1"
           d="m 260,196.3622 -14,7 14,9 14,-9 z"
           id="path4151"
           inkscape:connector-curvature="0" />
        <circle
           style="fill:#000000;fill-opacity:1;stroke:none;stroke-width:0.5;stroke-miterlimit:4;stroke-dasharray:none;stroke-opacity:1"
           id="path4153"
           cx="218.5"
           cy="185.8622"
           r="6.5" />
        <circle
           r="6.5"
           cy="182.66391"
           cx="283.31876"
           id="circle4155"
           style="fill:#000000;fill-opacity:1;stroke:none;stroke-width:0.5;stroke-miterlimit:4;stroke-dasharray:none;stroke-opacity:1" />
        <path
           style="fill:#906464;fill-opacity:1;fill-rule:evenodd;stroke:#000000;stroke-width:1px;stroke-linecap:butt;stroke-linejoin:miter;stroke-opacity:1"
           d="m 259,226.3622 -9,3 -12,3 -11,0 4,7 8,15 30,-1 1,-14 1,-3 4,-5 -7,-5 z"
           id="path4157"
           inkscape:connector-curvature="0" />
        <path
           style="fill:none;fill-rule:evenodd;stroke:#000000;stroke-width:1px;stroke-linecap:butt;stroke-linejoin:miter;stroke-opacity:1"
           d="m 259.08797,202.35334 c 20.82193,-7.29207 36.89962,-14.8477 70.6364,-5.79851"
           id="path4181"
           inkscape:connector-curvature="0"
           sodipodi:nodetypes="cc" />
        <path
           style="fill:none;fill-rule:evenodd;stroke:#000000;stroke-width:1px;stroke-linecap:butt;stroke-linejoin:miter;stroke-opacity:1"
           d="m 260.14225,203.40761 c 21.8762,-3.42639 38.74459,-10.54274 69.31856,5.00781"
           id="path4183"
           inkscape:connector-curvature="0"
           sodipodi:nodetypes="cc" />
        <path
           style="fill:none;fill-rule:evenodd;stroke:#000000;stroke-width:1px;stroke-linecap:butt;stroke-linejoin:miter;stroke-opacity:1"
           d="m 261.19652,204.72545 c 21.78834,1.93284 45.68524,-1.93284 65.36503,5.79851"
           id="path4185"
           inkscape:connector-curvature="0"
           sodipodi:nodetypes="cc" />
        <path
           style="fill:none;fill-rule:evenodd;stroke:#000000;stroke-width:1px;stroke-linecap:butt;stroke-linejoin:miter;stroke-opacity:1"
           d="m 262.51437,206.0433 c 20.41851,3.42518 43.20256,2.9078 59.83008,12.65129"
           id="path4187"
           inkscape:connector-curvature="0"
           sodipodi:nodetypes="cc" />
        <path
           style="fill:none;fill-rule:evenodd;stroke:#000000;stroke-width:1px;stroke-linecap:butt;stroke-linejoin:miter;stroke-opacity:1"
           d="m 259.08797,202.6169 c -35.05463,-11.24559 -46.91522,-2.19641 -70.89996,3.16282"
           id="path4189"
           inkscape:connector-curvature="0"
           sodipodi:nodetypes="cc" />
        <path
           style="fill:none;fill-rule:evenodd;stroke:#000000;stroke-width:1px;stroke-linecap:butt;stroke-linejoin:miter;stroke-opacity:1"
           d="m 259.87868,204.72545 c -21.43692,1.49356 -56.84297,0.0879 -69.31855,7.64349"
           id="path4191"
           inkscape:connector-curvature="0"
           sodipodi:nodetypes="cc" />
        <path
           style="fill:none;fill-rule:evenodd;stroke:#000000;stroke-width:1px;stroke-linecap:butt;stroke-linejoin:miter;stroke-opacity:1"
           d="m 259.61511,205.25259 c -29.51969,4.56852 -43.75239,2.02069 -65.36502,16.8684"
           id="path4193"
           inkscape:connector-curvature="0"
           sodipodi:nodetypes="cc" />
        <path
           style="fill:none;fill-rule:evenodd;stroke:#000000;stroke-width:1px;stroke-linecap:butt;stroke-linejoin:miter;stroke-opacity:1"
           d="m 258.82441,206.57043 c -18.62552,6.94064 -45.68524,10.45489 -55.87656,20.82193"
           id="path4195"
           inkscape:connector-curvature="0"
           sodipodi:nodetypes="cc" />
        <path
           style="fill:none;fill-rule:evenodd;stroke:#000000;stroke-width:1px;stroke-linecap:butt;stroke-linejoin:miter;stroke-opacity:1"
           d="m 260.22098,211.79228 c -0.15601,4.68023 3.43217,9.82849 -0.46802,14.0407"
           id="path4199"
           inkscape:connector-curvature="0"
           sodipodi:nodetypes="cc" />
        <path
           style="fill:none;fill-rule:evenodd;stroke:#000000;stroke-width:1px;stroke-linecap:butt;stroke-linejoin:miter;stroke-opacity:1"
           d="m 226.79169,232.25442 c 0,0 -14.89635,-7.54989 -15.91279,-13.57268 -1.01644,-6.02279 7.95639,-13.57268 7.95639,-13.57268"
           id="path4201"
           inkscape:connector-curvature="0"
           sodipodi:nodetypes="czc" />
        <path
           style="fill:none;fill-rule:evenodd;stroke:#000000;stroke-width:1px;stroke-linecap:butt;stroke-linejoin:miter;stroke-opacity:1"
           d="m 275.32861,231.24962 c 0,0 11.50597,-5.14611 13.10466,-10.29651 1.59869,-5.1504 -4.68024,-14.97675 -4.68024,-14.97675"
           id="path4203"
           inkscape:connector-curvature="0"
           sodipodi:nodetypes="czc" />
      </g>
      <text
         sodipodi:linespacing="125%"
         id="text4223"
         y="219.13637"
         x="5.9715428"
         style="font-style:normal;font-weight:normal;font-size:40px;line-height:125%;font-family:sans-serif;letter-spacing:0px;word-spacing:0px;fill:#000000;fill-opacity:1;stroke:none;stroke-width:1px;stroke-linecap:butt;stroke-linejoin:miter;stroke-opacity:1"
         xml:space="preserve"><tspan
           style="font-style:normal;font-variant:normal;font-weight:bold;font-stretch:normal;font-size:60px;line-height:125%;font-family:sans-serif;-inkscape-font-specification:'sans-serif Bold'"
           y="219.13637"
           x="5.9715428"
           id="tspan4225"
           sodipodi:role="line">Loading</tspan></text>
    </g>
  </g>
</svg>
