<?xml version="1.0" encoding="UTF-8" standalone="no"?>
<!-- Created with Inkscape (http://www.inkscape.org/) -->

<svg
   xmlns:dc="http://purl.org/dc/elements/1.1/"
   xmlns:cc="http://creativecommons.org/ns#"
   xmlns:rdf="http://www.w3.org/1999/02/22-rdf-syntax-ns#"
   xmlns:svg="http://www.w3.org/2000/svg"
   xmlns="http://www.w3.org/2000/svg"
   xmlns:sodipodi="http://sodipodi.sourceforge.net/DTD/sodipodi-0.dtd"
   xmlns:inkscape="http://www.inkscape.org/namespaces/inkscape"
   width="192"
   height="32"
   viewBox="0 0 192 31.999999"
   id="svg4313"
   version="1.1"
   inkscape:version="0.91 r13725"
   sodipodi:docname="player.svg">
  <sodipodi:namedview
     id="base"
     pagecolor="#ffffff"
     bordercolor="#666666"
     borderopacity="1.0"
     inkscape:pageopacity="0.0"
     inkscape:pageshadow="2"
     inkscape:zoom="14.961958"
     inkscape:cx="38.194623"
     inkscape:cy="13.218903"
     inkscape:document-units="px"
     inkscape:current-layer="layer1"
     showgrid="true"
     units="px"
     inkscape:window-width="1920"
     inkscape:window-height="1017"
     inkscape:window-x="-8"
     inkscape:window-y="-8"
     inkscape:window-maximized="1"
     inkscape:object-nodes="true"
     inkscape:snap-global="true"
     inkscape:snap-bbox="true"
     inkscape:bbox-nodes="true"
     inkscape:snap-others="true"
     inkscape:snap-nodes="true">
    <inkscape:grid
       spacingy="0.99999997"
       spacingx="1"
       empspacing="16"
       id="grid4861"
       type="xygrid" />
  </sodipodi:namedview>
  <defs
     id="defs4315" />
  <metadata
     id="metadata4318">
    <rdf:RDF>
      <cc:Work
         rdf:about="">
        <dc:format>image/svg+xml</dc:format>
        <dc:type
           rdf:resource="http://purl.org/dc/dcmitype/StillImage" />
        <dc:title></dc:title>
      </cc:Work>
    </rdf:RDF>
  </metadata>
  <g
     transform="translate(0,-1020.3622)"
     id="layer1"
     inkscape:groupmode="layer"
     inkscape:label="Ebene 1">
    <path
       inkscape:connector-curvature="0"
       id="path4611"
       d="m 79.95,1063.2813 0,-7 -10,5 0,7 z"
       style="fill:none;fill-rule:evenodd;stroke:#000000;stroke-width:0.1;stroke-linecap:butt;stroke-linejoin:miter;stroke-miterlimit:4;stroke-dasharray:none;stroke-opacity:1" />
    <g
       id="g6208">
      <path
         style="fill:#8c8c8c;fill-opacity:1;fill-rule:evenodd;stroke:none;stroke-width:1px;stroke-linecap:butt;stroke-linejoin:miter;stroke-opacity:1"
         d="m 101,1048.3622 22,0 0,-18 -22,0 z"
         id="path5250"
         inkscape:connector-curvature="0"
         sodipodi:nodetypes="ccccc" />
      <path
         style="fill:#000000;fill-opacity:1;fill-rule:evenodd;stroke:none;stroke-width:1px;stroke-linecap:butt;stroke-linejoin:miter;stroke-opacity:1"
         d="m 123,1044.3622 2,0 0,8 -2,0 z"
         id="path5252"
         inkscape:connector-curvature="0" />
      <path
         inkscape:connector-curvature="0"
         id="path5254"
         d="m 99,1044.3622 2,0 0,8 -2,0 z"
         style="fill:#000000;fill-opacity:1;fill-rule:evenodd;stroke:none;stroke-width:1px;stroke-linecap:butt;stroke-linejoin:miter;stroke-opacity:1" />
      <path
         style="fill:#8c8c8c;fill-opacity:1;fill-rule:evenodd;stroke:none;stroke-width:1px;stroke-linecap:butt;stroke-linejoin:miter;stroke-opacity:1"
         d="m 111,1030.3622 0,-6 2,0 0,6 z"
         id="path5258"
         inkscape:connector-curvature="0" />
      <ellipse
         ry="3.2506981"
         rx="3.4886901"
         cy="1024.4247"
         cx="116"
         id="ellipse5260"
         style="opacity:1;fill:none;fill-opacity:1;stroke:#000000;stroke-width:1.02261984;stroke-linejoin:miter;stroke-miterlimit:4;stroke-dasharray:none;stroke-opacity:1" />
      <ellipse
         style="opacity:1;fill:none;fill-opacity:1;stroke:#000000;stroke-width:1.02261996;stroke-linejoin:miter;stroke-miterlimit:4;stroke-dasharray:none;stroke-opacity:1"
         id="ellipse5262"
         cx="108"
         cy="1024.6002"
         rx="3.4886901"
         ry="3.2506981" />
      <circle
         style="opacity:1;fill:#000000;fill-opacity:1;stroke:none;stroke-width:1;stroke-linejoin:miter;stroke-miterlimit:4;stroke-dasharray:none;stroke-opacity:1"
         id="circle5264"
         cx="109"
         cy="1025.3622"
         r="1" />
      <circle
         r="1"
         cy="1025.3622"
         cx="115"
         id="circle5266"
         style="opacity:1;fill:#000000;fill-opacity:1;stroke:none;stroke-width:1;stroke-linejoin:miter;stroke-miterlimit:4;stroke-dasharray:none;stroke-opacity:1" />
      <path
         inkscape:connector-curvature="0"
         id="path5268"
         d="m 121,1032.3622 -3,0 0,3 3,0 z"
         style="fill:#3f9335;fill-opacity:1;fill-rule:evenodd;stroke:none;stroke-width:1px;stroke-linecap:butt;stroke-linejoin:miter;stroke-opacity:1" />
      <path
         style="fill:#582020;fill-opacity:1;fill-rule:evenodd;stroke:none;stroke-width:1px;stroke-linecap:butt;stroke-linejoin:miter;stroke-opacity:1"
         d="m 116,1032.3622 -3,0 0,3 3,0 z"
         id="path5270"
         inkscape:connector-curvature="0" />
      <path
         style="fill:#3c3c3c;fill-opacity:1;fill-rule:evenodd;stroke:none;stroke-width:1px;stroke-linecap:butt;stroke-linejoin:miter;stroke-opacity:1"
         d="m 103,1041.3622 c -0.49354,-0.3557 -1,-1 -1,-1 l 0,-2 c 0,0 0.50646,-0.6443 1,-1 0.49354,-0.3557 2,-1 2,-1 l 0,1 c 0,0 -1,1.2546 -1,2 0,0.7454 1,2 1,2 l 0,1 c 0,0 -1.50646,-0.6443 -2,-1 z"
         id="path5595"
         inkscape:connector-curvature="0"
         sodipodi:nodetypes="zcczcczccz" />
      <path
         sodipodi:nodetypes="zcczcczccz"
         inkscape:connector-curvature="0"
         id="path5826"
         d="m 121,1041.3622 c 0.49354,-0.3557 1,-1 1,-1 l 0,-2 c 0,0 -0.50646,-0.6443 -1,-1 -0.49354,-0.3557 -2,-1 -2,-1 l 0,1 c 0,0 1,1.2546 1,2 0,0.7454 -1,2 -1,2 l 0,1 c 0,0 1.50646,-0.6443 2,-1 z"
         style="fill:#3c3c3c;fill-opacity:1;fill-rule:evenodd;stroke:none;stroke-width:1px;stroke-linecap:butt;stroke-linejoin:miter;stroke-opacity:1" />
      <path
         inkscape:connector-curvature="0"
         id="path5828"
         d="m 122,1038.3622 1,0 0,2 -1,0 z"
         style="fill:#3c3c3c;fill-opacity:1;fill-rule:evenodd;stroke:none;stroke-width:1px;stroke-linecap:butt;stroke-linejoin:miter;stroke-opacity:1" />
      <path
         style="fill:#3c3c3c;fill-opacity:1;fill-rule:evenodd;stroke:none;stroke-width:1px;stroke-linecap:butt;stroke-linejoin:miter;stroke-opacity:1"
         d="m 101,1038.3622 1,0 0,2 -1,0 z"
         id="path5830"
         inkscape:connector-curvature="0" />
      <path
         inkscape:connector-curvature="0"
         id="path6004"
         d="m 111,1048.3622 2,0 0,4 -2,0 z"
         style="fill:#000000;fill-opacity:1;fill-rule:evenodd;stroke:none;stroke-width:1px;stroke-linecap:butt;stroke-linejoin:miter;stroke-opacity:1" />
    </g>
    <g
       id="g6191">
      <path
         style="fill:#8c8c8c;fill-opacity:1;fill-rule:evenodd;stroke:none;stroke-width:1px;stroke-linecap:butt;stroke-linejoin:miter;stroke-opacity:1"
         d="m 69,1048.3622 22,0 0,-18 -22,0 z"
         id="path4196"
         inkscape:connector-curvature="0"
         sodipodi:nodetypes="ccccc" />
      <path
         style="fill:#000000;fill-opacity:1;fill-rule:evenodd;stroke:none;stroke-width:1px;stroke-linecap:butt;stroke-linejoin:miter;stroke-opacity:1"
         d="m 91,1044.3622 2,0 0,8 -2,0 z"
         id="path4198"
         inkscape:connector-curvature="0" />
      <path
         inkscape:connector-curvature="0"
         id="path4200"
         d="m 67,1044.3622 2,0 0,8 -2,0 z"
         style="fill:#000000;fill-opacity:1;fill-rule:evenodd;stroke:none;stroke-width:1px;stroke-linecap:butt;stroke-linejoin:miter;stroke-opacity:1" />
      <path
         style="fill:#8c8c8c;fill-opacity:1;fill-rule:evenodd;stroke:none;stroke-width:1px;stroke-linecap:butt;stroke-linejoin:miter;stroke-opacity:1"
         d="m 79,1030.3622 0,-6 2,0 0,6 z"
         id="path4202"
         inkscape:connector-curvature="0" />
      <ellipse
         ry="3.2506981"
         rx="3.4886901"
         cy="1024.4247"
         cx="84"
         id="ellipse4208"
         style="opacity:1;fill:none;fill-opacity:1;stroke:#000000;stroke-width:1.02261984;stroke-linejoin:miter;stroke-miterlimit:4;stroke-dasharray:none;stroke-opacity:1" />
      <ellipse
         style="opacity:1;fill:none;fill-opacity:1;stroke:#000000;stroke-width:1.02261996;stroke-linejoin:miter;stroke-miterlimit:4;stroke-dasharray:none;stroke-opacity:1"
         id="ellipse4238"
         cx="76"
         cy="1024.6002"
         rx="3.4886901"
         ry="3.2506981" />
      <circle
         style="opacity:1;fill:#000000;fill-opacity:1;stroke:none;stroke-width:1;stroke-linejoin:miter;stroke-miterlimit:4;stroke-dasharray:none;stroke-opacity:1"
         id="path4240"
         cx="77"
         cy="1025.3622"
         r="1" />
      <circle
         r="1"
         cy="1025.3622"
         cx="83"
         id="circle4242"
         style="opacity:1;fill:#000000;fill-opacity:1;stroke:none;stroke-width:1;stroke-linejoin:miter;stroke-miterlimit:4;stroke-dasharray:none;stroke-opacity:1" />
      <path
         inkscape:connector-curvature="0"
         id="path5202"
         d="m 89,1032.3622 -3,0 0,3 3,0 z"
         style="fill:#265920;fill-opacity:1;fill-rule:evenodd;stroke:none;stroke-width:1px;stroke-linecap:butt;stroke-linejoin:miter;stroke-opacity:1" />
      <path
         style="fill:#ad1b1b;fill-opacity:1;fill-rule:evenodd;stroke:none;stroke-width:1px;stroke-linecap:butt;stroke-linejoin:miter;stroke-opacity:1"
         d="m 84,1032.3622 -3,0 0,3 3,0 z"
         id="path5204"
         inkscape:connector-curvature="0" />
      <path
         sodipodi:nodetypes="zcczcczccz"
         inkscape:connector-curvature="0"
         id="path5796"
         d="m 71,1041.3622 c -0.49354,-0.3557 -1,-1 -1,-1 l 0,-2 c 0,0 0.50646,-0.6443 1,-1 0.49354,-0.3557 2,-1 2,-1 l 0,1 c 0,0 -1,1.2546 -1,2 0,0.7454 1,2 1,2 l 0,1 c 0,0 -1.50646,-0.6443 -2,-1 z"
         style="fill:#3c3c3c;fill-opacity:1;fill-rule:evenodd;stroke:none;stroke-width:1px;stroke-linecap:butt;stroke-linejoin:miter;stroke-opacity:1" />
      <path
         style="fill:#3c3c3c;fill-opacity:1;fill-rule:evenodd;stroke:none;stroke-width:1px;stroke-linecap:butt;stroke-linejoin:miter;stroke-opacity:1"
         d="m 89,1041.3622 c 0.49354,-0.3557 1,-1 1,-1 l 0,-2 c 0,0 -0.50646,-0.6443 -1,-1 -0.49354,-0.3557 -2,-1 -2,-1 l 0,1 c 0,0 1,1.2546 1,2 0,0.7454 -1,2 -1,2 l 0,1 c 0,0 1.50646,-0.6443 2,-1 z"
         id="path5824"
         inkscape:connector-curvature="0"
         sodipodi:nodetypes="zcczcczccz" />
      <path
         inkscape:connector-curvature="0"
         id="path5832"
         d="m 90,1038.3622 1,0 0,2 -1,0 z"
         style="fill:#3c3c3c;fill-opacity:1;fill-rule:evenodd;stroke:none;stroke-width:1px;stroke-linecap:butt;stroke-linejoin:miter;stroke-opacity:1" />
      <path
         style="fill:#3c3c3c;fill-opacity:1;fill-rule:evenodd;stroke:none;stroke-width:1px;stroke-linecap:butt;stroke-linejoin:miter;stroke-opacity:1"
         d="m 69,1038.3622 1,0 0,2 -1,0 z"
         id="path5834"
         inkscape:connector-curvature="0" />
      <path
         style="fill:#000000;fill-opacity:1;fill-rule:evenodd;stroke:none;stroke-width:1px;stroke-linecap:butt;stroke-linejoin:miter;stroke-opacity:1"
         d="m 79,1048.3622 2,0 0,4 -2,0 z"
         id="path6053"
         inkscape:connector-curvature="0" />
    </g>
    <g
       id="g6395">
      <path
         inkscape:connector-curvature="0"
         id="path4596"
         d="m 15,1030.3622 0,-4 1,0 0,1 1,1 0,2 z"
         style="fill:#8c8c8c;fill-opacity:1;fill-rule:evenodd;stroke:none;stroke-width:1px;stroke-linecap:butt;stroke-linejoin:miter;stroke-opacity:1" />
      <path
         style="fill:#8c8c8c;fill-opacity:1;fill-rule:evenodd;stroke:none;stroke-width:1px;stroke-linecap:butt;stroke-linejoin:miter;stroke-opacity:1"
         d="m 5,1048.3622 19,0 0,-18 -19,0 z"
         id="path4971"
         inkscape:connector-curvature="0"
         sodipodi:nodetypes="ccccc" />
      <ellipse
         style="opacity:1;fill:#000000;fill-opacity:1;stroke:none;stroke-width:0.1;stroke-linejoin:miter;stroke-miterlimit:4;stroke-dasharray:none;stroke-opacity:1"
         id="path4145"
         cx="16"
         cy="1048.3622"
         rx="4"
         ry="3.9999919" />
      <path
         style="fill:none;fill-rule:evenodd;stroke:#d7d7d7;stroke-width:1px;stroke-linecap:butt;stroke-linejoin:miter;stroke-opacity:1"
         d="m 16,1044.3622 0,8"
         id="path4157"
         inkscape:connector-curvature="0" />
      <path
         style="fill:none;fill-rule:evenodd;stroke:#d7d7d7;stroke-width:1px;stroke-linecap:butt;stroke-linejoin:miter;stroke-opacity:1"
         d="m 12,1048.3622 8,0"
         id="path4159"
         inkscape:connector-curvature="0" />
      <path
         style="opacity:1;fill:none;fill-opacity:1;stroke:#000000;stroke-width:1.02261984;stroke-linejoin:miter;stroke-miterlimit:4;stroke-dasharray:none;stroke-opacity:1"
         d="m 19.930431,1027.4751 c 1e-6,0.7838 -0.229723,1.4207 -0.638633,1.7705 -0.40891,0.3498 -0.963511,0.3838 -1.541798,0.095 -0.578287,-0.2892 -1.132888,-0.8778 -1.541798,-1.6365 -0.40891,-0.7587 -0.638634,-1.6253 -0.638633,-2.4091 -10e-7,-0.7838 0.229723,-1.4207 0.638633,-1.7704 0.40891,-0.3498 0.963511,-0.3839 1.541798,-0.095 0.578287,0.2891 1.132888,0.8778 1.541798,1.6365 0.40891,0.7587 0.638634,1.6252 0.638633,2.409 0,0 0,0 0,0"
         id="ellipse4719"
         inkscape:connector-curvature="0" />
      <path
         style="opacity:1;fill:none;fill-opacity:1;stroke:#000000;stroke-width:1.02261996;stroke-linejoin:miter;stroke-miterlimit:4;stroke-dasharray:none;stroke-opacity:1"
         d="m 14.930431,1025.1347 c 10e-7,0.7838 -0.229723,1.4207 -0.638633,1.7704 -0.40891,0.3498 -0.963511,0.3839 -1.541798,0.095 -0.578287,-0.2891 -1.132888,-0.8778 -1.541798,-1.6365 -0.40891,-0.7587 -0.638634,-1.6252 -0.638633,-2.409 -10e-7,-0.7839 0.229723,-1.4207 0.638633,-1.7705 0.40891,-0.3498 0.963511,-0.3838 1.541798,-0.095 0.578287,0.2892 1.132888,0.8778 1.541798,1.6365 0.40891,0.7587 0.638634,1.6253 0.638633,2.4091 0,0 0,0 0,0"
         id="ellipse4721"
         inkscape:connector-curvature="0" />
      <path
         style="opacity:1;fill:#000000;fill-opacity:1;stroke:none;stroke-width:1;stroke-linejoin:miter;stroke-miterlimit:4;stroke-dasharray:none;stroke-opacity:1"
         d="m 14,1025.3622 c 0,0.2412 -0.06585,0.4395 -0.183058,0.5514 -0.11721,0.1119 -0.276182,0.1282 -0.441942,0.045 -0.16576,-0.083 -0.324732,-0.2582 -0.441942,-0.4873 -0.11721,-0.2288 -0.183058,-0.4929 -0.183058,-0.7341 0,-0.2411 0.06585,-0.4394 0.183058,-0.5513 0.11721,-0.1119 0.276182,-0.1282 0.441942,-0.045 0.16576,0.083 0.324732,0.2582 0.441942,0.4873 0.11721,0.2291 0.183058,0.4932 0.183058,0.7343 0,0 0,0 0,0"
         id="circle4723"
         inkscape:connector-curvature="0" />
      <path
         style="opacity:1;fill:#000000;fill-opacity:1;stroke:none;stroke-width:1;stroke-linejoin:miter;stroke-miterlimit:4;stroke-dasharray:none;stroke-opacity:1"
         d="m 17.75,1027.2372 c 0,0.2412 -0.06585,0.4395 -0.183058,0.5514 -0.11721,0.1119 -0.276182,0.1282 -0.441942,0.045 -0.16576,-0.083 -0.324732,-0.2582 -0.441942,-0.4873 -0.11721,-0.2291 -0.183058,-0.4932 -0.183058,-0.7344 0,-0.2411 0.06585,-0.4394 0.183058,-0.5513 0.11721,-0.1119 0.276182,-0.1282 0.441942,-0.045 0.16576,0.083 0.324732,0.2582 0.441942,0.4873 0.11721,0.2291 0.183058,0.4932 0.183058,0.7343 0,0 0,0 0,0"
         id="circle4725"
         inkscape:connector-curvature="0" />
      <path
         inkscape:connector-curvature="0"
         id="path5378"
         d="m 11,1036.3622 -7,0 0,2 7,0 z"
         style="fill:#3c3c3c;fill-opacity:1;fill-rule:evenodd;stroke:none;stroke-width:1px;stroke-linecap:butt;stroke-linejoin:miter;stroke-opacity:1" />
      <path
         sodipodi:nodetypes="zcczcczccz"
         inkscape:connector-curvature="0"
         id="path5382"
         d="m 3,1039.3622 c 0.4935437,-0.3557 1,-1 1,-1 l 0,-2 c 0,0 -0.5064563,-0.6443 -1,-1 -0.4935437,-0.3557 -2,-1 -2,-1 l 0,1 c 0,0 1,1.2546 1,2 0,0.7454 -1,2 -1,2 l 0,1 c 0,0 1.5064563,-0.6443 2,-1 z"
         style="fill:#3c3c3c;fill-opacity:1;fill-rule:evenodd;stroke:none;stroke-width:1px;stroke-linecap:butt;stroke-linejoin:miter;stroke-opacity:1" />
      <g
         id="g6107"
         transform="matrix(-0.53032969,0.53032969,0.53033009,0.53033009,-450.61054,417.01673)">
        <g
           id="g6109">
          <ellipse
             style="opacity:1;fill:#000000;fill-opacity:1;stroke:none;stroke-width:0.1;stroke-linejoin:miter;stroke-miterlimit:4;stroke-dasharray:none;stroke-opacity:1"
             id="ellipse6111"
             cx="-639.48065"
             cy="843.12738"
             rx="4"
             ry="3.9999919"
             transform="matrix(0.70710678,-0.70710678,0.70710678,0.70710678,0,0)" />
          <path
             style="fill:none;fill-rule:evenodd;stroke:#d7d7d7;stroke-width:1px;stroke-linecap:butt;stroke-linejoin:miter;stroke-opacity:1"
             d="m 141.17157,1045.5338 5.65686,5.6568"
             id="path6113"
             inkscape:connector-curvature="0" />
        </g>
        <path
           inkscape:connector-curvature="0"
           id="path6115"
           d="m 141.17157,1051.1906 5.65686,-5.6568"
           style="fill:none;fill-rule:evenodd;stroke:#d7d7d7;stroke-width:1px;stroke-linecap:butt;stroke-linejoin:miter;stroke-opacity:1" />
      </g>
      <path
         inkscape:connector-curvature="0"
         id="path6278"
         d="m 29,1049.3622 -1,0 -4,-4 0,-2 5,5 z"
         style="fill:#8c8c8c;fill-rule:evenodd;stroke:none;stroke-width:1px;stroke-linecap:butt;stroke-linejoin:miter;stroke-opacity:1;fill-opacity:1" />
    </g>
    <g
       id="g6376">
      <path
         style="fill:#8c8c8c;fill-opacity:1;fill-rule:evenodd;stroke:none;stroke-width:1px;stroke-linecap:butt;stroke-linejoin:miter;stroke-opacity:1"
         d="m 47,1030.3622 0,-4 1,0 1,3 0,1 z"
         id="path4713"
         inkscape:connector-curvature="0" />
      <path
         sodipodi:nodetypes="ccccc"
         inkscape:connector-curvature="0"
         id="path4166"
         d="m 37,1048.3622 19,0 0,-18 -19,0 z"
         style="fill:#8c8c8c;fill-opacity:1;fill-rule:evenodd;stroke:none;stroke-width:1px;stroke-linecap:butt;stroke-linejoin:miter;stroke-opacity:1" />
      <ellipse
         transform="matrix(0.70710678,-0.70710678,0.70710678,0.70710678,0,0)"
         ry="3.9999919"
         rx="4"
         cy="775.24512"
         cx="-707.36292"
         id="ellipse4170"
         style="opacity:1;fill:#000000;fill-opacity:1;stroke:none;stroke-width:0.1;stroke-linejoin:miter;stroke-miterlimit:4;stroke-dasharray:none;stroke-opacity:1" />
      <path
         inkscape:connector-curvature="0"
         id="path4172"
         d="m 45.171571,1045.5338 5.656854,5.6568"
         style="fill:none;fill-rule:evenodd;stroke:#d7d7d7;stroke-width:1px;stroke-linecap:butt;stroke-linejoin:miter;stroke-opacity:1" />
      <path
         inkscape:connector-curvature="0"
         id="path4174"
         d="m 45.171571,1051.1906 5.656854,-5.6568"
         style="fill:none;fill-rule:evenodd;stroke:#d7d7d7;stroke-width:1px;stroke-linecap:butt;stroke-linejoin:miter;stroke-opacity:1" />
      <path
         inkscape:connector-curvature="0"
         id="path4838"
         d="m 51.872172,1027.4437 c 10e-7,0.7838 -0.229723,1.4207 -0.638633,1.7705 -0.40891,0.3498 -0.963511,0.3838 -1.541798,0.095 -0.578287,-0.2892 -1.132888,-0.8778 -1.541798,-1.6365 -0.40891,-0.7587 -0.638634,-1.6253 -0.638633,-2.4091 -1e-6,-0.7838 0.229723,-1.4207 0.638633,-1.7704 0.40891,-0.3498 0.963511,-0.3839 1.541798,-0.095 0.578287,0.2891 1.132888,0.8778 1.541798,1.6365 0.40891,0.7587 0.638634,1.6252 0.638633,2.409 0,0 0,0 0,0"
         style="opacity:1;fill:none;fill-opacity:1;stroke:#000000;stroke-width:1.02261984;stroke-linejoin:miter;stroke-miterlimit:4;stroke-dasharray:none;stroke-opacity:1" />
      <path
         inkscape:connector-curvature="0"
         id="path4840"
         d="m 46.872172,1025.1033 c 10e-7,0.7838 -0.229723,1.4207 -0.638633,1.7704 -0.40891,0.3498 -0.963511,0.3839 -1.541798,0.095 -0.578287,-0.2891 -1.132888,-0.8778 -1.541798,-1.6365 -0.40891,-0.7587 -0.638634,-1.6252 -0.638633,-2.409 -1e-6,-0.7839 0.229723,-1.4207 0.638633,-1.7705 0.40891,-0.3498 0.963511,-0.3838 1.541798,-0.095 0.578287,0.2892 1.132888,0.8778 1.541798,1.6365 0.40891,0.7587 0.638634,1.6253 0.638633,2.4091 0,0 0,0 0,0"
         style="opacity:1;fill:none;fill-opacity:1;stroke:#000000;stroke-width:1.02261996;stroke-linejoin:miter;stroke-miterlimit:4;stroke-dasharray:none;stroke-opacity:1" />
      <path
         inkscape:connector-curvature="0"
         id="path4842"
         d="m 45.941741,1025.3308 c 0,0.2412 -0.06585,0.4395 -0.183058,0.5514 -0.11721,0.1119 -0.276182,0.1282 -0.441942,0.045 -0.16576,-0.083 -0.324732,-0.2582 -0.441942,-0.4873 -0.11721,-0.2288 -0.183058,-0.4929 -0.183058,-0.7341 0,-0.2411 0.06585,-0.4394 0.183058,-0.5513 0.11721,-0.1119 0.276182,-0.1282 0.441942,-0.045 0.16576,0.083 0.324732,0.2582 0.441942,0.4873 0.11721,0.2291 0.183058,0.4932 0.183058,0.7343 0,0 0,0 0,0"
         style="opacity:1;fill:#000000;fill-opacity:1;stroke:none;stroke-width:1;stroke-linejoin:miter;stroke-miterlimit:4;stroke-dasharray:none;stroke-opacity:1" />
      <path
         inkscape:connector-curvature="0"
         id="path4844"
         d="m 49.691741,1027.2058 c 0,0.2412 -0.06585,0.4395 -0.183058,0.5514 -0.11721,0.1119 -0.276182,0.1282 -0.441942,0.045 -0.16576,-0.083 -0.324732,-0.2582 -0.441942,-0.4873 -0.11721,-0.2291 -0.183058,-0.4932 -0.183058,-0.7344 0,-0.2411 0.06585,-0.4394 0.183058,-0.5513 0.11721,-0.1119 0.276182,-0.1282 0.441942,-0.045 0.16576,0.083 0.324732,0.2582 0.441942,0.4873 0.11721,0.2291 0.183058,0.4932 0.183058,0.7343 0,0 0,0 0,0"
         style="opacity:1;fill:#000000;fill-opacity:1;stroke:none;stroke-width:1;stroke-linejoin:miter;stroke-miterlimit:4;stroke-dasharray:none;stroke-opacity:1" />
      <path
         sodipodi:nodetypes="ccccc"
         style="fill:#3c3c3c;fill-opacity:1;fill-rule:evenodd;stroke:none;stroke-width:1px;stroke-linecap:butt;stroke-linejoin:miter;stroke-opacity:1"
         d="m 43,1036.3622 -7,2 0,2 7,-2 z"
         id="path5420"
         inkscape:connector-curvature="0" />
      <path
         style="fill:#3c3c3c;fill-opacity:1;fill-rule:evenodd;stroke:none;stroke-width:1px;stroke-linecap:butt;stroke-linejoin:miter;stroke-opacity:1"
         d="m 35,1041.3622 c 0.493544,-0.3557 1,-1 1,-1 l 0,-2 c 0,0 -0.506456,-0.6443 -1,-1 -0.493544,-0.3557 -2,-1 -2,-1 l 0,1 c 0,0 1,1.2546 1,2 0,0.7454 -1,2 -1,2 l 0,1 c 0,0 1.506456,-0.6443 2,-1 z"
         id="path5422"
         inkscape:connector-curvature="0"
         sodipodi:nodetypes="zcczcczccz" />
      <g
         transform="matrix(-0.74999944,0,0,0.75,168.99991,263.09056)"
         id="g6129">
        <g
           id="g6131">
          <ellipse
             transform="matrix(0.70710678,-0.70710678,0.70710678,0.70710678,0,0)"
             ry="3.9999919"
             rx="4"
             cy="843.12738"
             cx="-639.48065"
             id="ellipse6133"
             style="opacity:1;fill:#000000;fill-opacity:1;stroke:none;stroke-width:0.1;stroke-linejoin:miter;stroke-miterlimit:4;stroke-dasharray:none;stroke-opacity:1" />
          <path
             inkscape:connector-curvature="0"
             id="path6135"
             d="m 141.17157,1045.5338 5.65686,5.6568"
             style="fill:none;fill-rule:evenodd;stroke:#d7d7d7;stroke-width:1px;stroke-linecap:butt;stroke-linejoin:miter;stroke-opacity:1" />
        </g>
        <path
           style="fill:none;fill-rule:evenodd;stroke:#d7d7d7;stroke-width:1px;stroke-linecap:butt;stroke-linejoin:miter;stroke-opacity:1"
           d="m 141.17157,1051.1906 5.65686,-5.6568"
           id="path6137"
           inkscape:connector-curvature="0" />
      </g>
      <path
         style="fill:#8c8c8c;fill-opacity:1;fill-rule:evenodd;stroke:none;stroke-width:1px;stroke-linecap:butt;stroke-linejoin:miter;stroke-opacity:1"
         d="m 61,1049.3622 -1,0 -4,-4 0,-2 5,5 z"
         id="path6297"
         inkscape:connector-curvature="0" />
    </g>
    <g
       id="g6354">
      <g
         transform="matrix(0.74999944,0,0,0.75,23.000086,263.09056)"
         id="g6081">
        <g
           id="g6083">
          <ellipse
             transform="matrix(0.70710678,-0.70710678,0.70710678,0.70710678,0,0)"
             ry="3.9999919"
             rx="4"
             cy="843.12738"
             cx="-639.48065"
             id="ellipse6085"
             style="opacity:1;fill:#000000;fill-opacity:1;stroke:none;stroke-width:0.1;stroke-linejoin:miter;stroke-miterlimit:4;stroke-dasharray:none;stroke-opacity:1" />
          <path
             inkscape:connector-curvature="0"
             id="path6087"
             d="m 141.17157,1045.5338 5.65686,5.6568"
             style="fill:none;fill-rule:evenodd;stroke:#d7d7d7;stroke-width:1px;stroke-linecap:butt;stroke-linejoin:miter;stroke-opacity:1" />
        </g>
        <path
           style="fill:none;fill-rule:evenodd;stroke:#d7d7d7;stroke-width:1px;stroke-linecap:butt;stroke-linejoin:miter;stroke-opacity:1"
           d="m 141.17157,1051.1906 5.65686,-5.6568"
           id="path6089"
           inkscape:connector-curvature="0" />
      </g>
      <path
         style="fill:#8c8c8c;fill-opacity:1;fill-rule:evenodd;stroke:none;stroke-width:1px;stroke-linecap:butt;stroke-linejoin:miter;stroke-opacity:1"
         d="m 143,1030.3622 0,-3 1,-2 1,2 0,3 z"
         id="path5111"
         inkscape:connector-curvature="0" />
      <path
         style="fill:#8c8c8c;fill-opacity:1;fill-rule:evenodd;stroke:none;stroke-width:1px;stroke-linecap:butt;stroke-linejoin:miter;stroke-opacity:1"
         d="m 136,1048.3622 19,0 0,-18 -19,0 z"
         id="path4176"
         inkscape:connector-curvature="0"
         sodipodi:nodetypes="ccccc" />
      <g
         id="g6075">
        <g
           id="g6065">
          <ellipse
             style="opacity:1;fill:#000000;fill-opacity:1;stroke:none;stroke-width:0.1;stroke-linejoin:miter;stroke-miterlimit:4;stroke-dasharray:none;stroke-opacity:1"
             id="ellipse4180"
             cx="-639.48065"
             cy="843.12738"
             rx="4"
             ry="3.9999919"
             transform="matrix(0.70710678,-0.70710678,0.70710678,0.70710678,0,0)" />
          <path
             style="fill:none;fill-rule:evenodd;stroke:#d7d7d7;stroke-width:1px;stroke-linecap:butt;stroke-linejoin:miter;stroke-opacity:1"
             d="m 141.17157,1045.5338 5.65686,5.6568"
             id="path4182"
             inkscape:connector-curvature="0" />
        </g>
        <path
           inkscape:connector-curvature="0"
           id="path4184"
           d="m 141.17157,1051.1906 5.65686,-5.6568"
           style="fill:none;fill-rule:evenodd;stroke:#d7d7d7;stroke-width:1px;stroke-linecap:butt;stroke-linejoin:miter;stroke-opacity:1" />
      </g>
      <path
         inkscape:connector-curvature="0"
         id="path4875"
         d="m 139.12783,1027.4437 c 0,0.7838 0.22972,1.4207 0.63863,1.7705 0.40891,0.3498 0.96351,0.3838 1.5418,0.095 0.57829,-0.2892 1.13289,-0.8778 1.5418,-1.6365 0.40891,-0.7587 0.63863,-1.6253 0.63863,-2.4091 0,-0.7838 -0.22972,-1.4207 -0.63863,-1.7704 -0.40891,-0.3498 -0.96351,-0.3839 -1.5418,-0.095 -0.57829,0.2891 -1.13289,0.8778 -1.5418,1.6365 -0.40891,0.7587 -0.63863,1.6252 -0.63863,2.409 0,0 0,0 0,0"
         style="opacity:1;fill:none;fill-opacity:1;stroke:#000000;stroke-width:1.02261984;stroke-linejoin:miter;stroke-miterlimit:4;stroke-dasharray:none;stroke-opacity:1" />
      <path
         inkscape:connector-curvature="0"
         id="path4877"
         d="m 144.12783,1025.1033 c 0,0.7838 0.22972,1.4207 0.63863,1.7704 0.40891,0.3498 0.96351,0.3839 1.5418,0.095 0.57829,-0.2891 1.13289,-0.8778 1.5418,-1.6365 0.40891,-0.7587 0.63863,-1.6252 0.63863,-2.409 0,-0.7838 -0.22972,-1.4207 -0.63863,-1.7705 -0.40891,-0.3498 -0.96351,-0.3838 -1.5418,-0.095 -0.57829,0.2892 -1.13289,0.8778 -1.5418,1.6365 -0.40891,0.7587 -0.63863,1.6253 -0.63863,2.4091 0,0 0,0 0,0"
         style="opacity:1;fill:none;fill-opacity:1;stroke:#000000;stroke-width:1.02261996;stroke-linejoin:miter;stroke-miterlimit:4;stroke-dasharray:none;stroke-opacity:1" />
      <path
         inkscape:connector-curvature="0"
         id="path4879"
         d="m 145.05826,1025.3308 c 0,0.2412 0.0659,0.4395 0.18306,0.5514 0.11721,0.1119 0.27618,0.1282 0.44194,0.045 0.16576,-0.083 0.32473,-0.2582 0.44194,-0.4873 0.11721,-0.2291 0.18306,-0.4932 0.18306,-0.7344 0,-0.2411 -0.0658,-0.4394 -0.18306,-0.5513 -0.11721,-0.1119 -0.27618,-0.1282 -0.44194,-0.045 -0.16576,0.083 -0.32473,0.2582 -0.44194,0.4873 -0.11721,0.2291 -0.18306,0.4932 -0.18306,0.7343 0,0 0,0 0,0"
         style="opacity:1;fill:#000000;fill-opacity:1;stroke:none;stroke-width:1;stroke-linejoin:miter;stroke-miterlimit:4;stroke-dasharray:none;stroke-opacity:1" />
      <path
         inkscape:connector-curvature="0"
         id="path4881"
         d="m 141.30826,1027.2058 c 0,0.2412 0.0659,0.4395 0.18306,0.5514 0.11721,0.1119 0.27618,0.1282 0.44194,0.045 0.16576,-0.083 0.32473,-0.2582 0.44194,-0.4873 0.11721,-0.2291 0.18306,-0.4932 0.18306,-0.7344 0,-0.2411 -0.0658,-0.4394 -0.18306,-0.5513 -0.11721,-0.1119 -0.27618,-0.1282 -0.44194,-0.045 -0.16576,0.083 -0.32473,0.2582 -0.44194,0.4873 -0.11721,0.2291 -0.18306,0.4932 -0.18306,0.7343 0,0 0,0 0,0"
         style="opacity:1;fill:#000000;fill-opacity:1;stroke:none;stroke-width:1;stroke-linejoin:miter;stroke-miterlimit:4;stroke-dasharray:none;stroke-opacity:1" />
      <path
         sodipodi:nodetypes="ccccc"
         inkscape:connector-curvature="0"
         id="path5460"
         d="m 149,1036.3622 7,2 0,2 -7,-2 z"
         style="fill:#3c3c3c;fill-opacity:1;fill-rule:evenodd;stroke:none;stroke-width:1px;stroke-linecap:butt;stroke-linejoin:miter;stroke-opacity:1" />
      <path
         sodipodi:nodetypes="zcczcczccz"
         inkscape:connector-curvature="0"
         id="path5462"
         d="m 157,1041.3622 c -0.49354,-0.3557 -1,-1 -1,-1 l 0,-2 c 0,0 0.50646,-0.6443 1,-1 0.49354,-0.3557 2,-1 2,-1 l 0,1 c 0,0 -1,1.2546 -1,2 0,0.7454 1,2 1,2 l 0,1 c 0,0 -1.50646,-0.6443 -2,-1 z"
         style="fill:#3c3c3c;fill-opacity:1;fill-rule:evenodd;stroke:none;stroke-width:1px;stroke-linecap:butt;stroke-linejoin:miter;stroke-opacity:1" />
      <path
         inkscape:connector-curvature="0"
         id="path6091"
         d="m 130,1049.3622 0,-5 6,0 0,1 -5,0 0,4 z"
         style="fill:none;fill-rule:evenodd;stroke:none;stroke-width:1px;stroke-linecap:butt;stroke-linejoin:miter;stroke-opacity:1" />
      <path
         inkscape:connector-curvature="0"
         id="path6299"
         d="m 131,1049.3622 1,0 4,-4 0,-2 -5,5 z"
         style="fill:#8c8c8c;fill-opacity:1;fill-rule:evenodd;stroke:none;stroke-width:1px;stroke-linecap:butt;stroke-linejoin:miter;stroke-opacity:1" />
    </g>
    <g
       id="g6335">
      <path
         inkscape:connector-curvature="0"
         id="path5113"
         d="m 175,1030.3622 0,-3 1,-2 1,2 0,3 z"
         style="fill:#8c8c8c;fill-opacity:1;fill-rule:evenodd;stroke:none;stroke-width:1px;stroke-linecap:butt;stroke-linejoin:miter;stroke-opacity:1" />
      <path
         sodipodi:nodetypes="ccccc"
         inkscape:connector-curvature="0"
         id="path4186"
         d="m 168,1048.3622 19,0 0,-18 -19,0 z"
         style="fill:#8c8c8c;fill-opacity:1;fill-rule:evenodd;stroke:none;stroke-width:1px;stroke-linecap:butt;stroke-linejoin:miter;stroke-opacity:1" />
      <ellipse
         ry="3.9999919"
         rx="4"
         cy="1048.3622"
         cx="176"
         id="ellipse4190"
         style="opacity:1;fill:#000000;fill-opacity:1;stroke:none;stroke-width:0.1;stroke-linejoin:miter;stroke-miterlimit:4;stroke-dasharray:none;stroke-opacity:1" />
      <path
         inkscape:connector-curvature="0"
         id="path4192"
         d="m 176,1044.3622 0,8"
         style="fill:none;fill-rule:evenodd;stroke:#d7d7d7;stroke-width:1px;stroke-linecap:butt;stroke-linejoin:miter;stroke-opacity:1" />
      <path
         inkscape:connector-curvature="0"
         id="path4194"
         d="m 172,1048.3622 8,0"
         style="fill:none;fill-rule:evenodd;stroke:#d7d7d7;stroke-width:1px;stroke-linecap:butt;stroke-linejoin:miter;stroke-opacity:1" />
      <path
         inkscape:connector-curvature="0"
         style="opacity:1;fill:none;fill-opacity:1;stroke:#000000;stroke-width:1.02261984;stroke-linejoin:miter;stroke-miterlimit:4;stroke-dasharray:none;stroke-opacity:1"
         d="m 171.12783,1027.4437 c 0,0.7838 0.22972,1.4207 0.63863,1.7705 0.40891,0.3498 0.96351,0.3838 1.5418,0.095 0.57829,-0.2892 1.13289,-0.8778 1.5418,-1.6365 0.40891,-0.7587 0.63863,-1.6253 0.63863,-2.4091 0,-0.7838 -0.22972,-1.4207 -0.63863,-1.7704 -0.40891,-0.3498 -0.96351,-0.3839 -1.5418,-0.095 -0.57829,0.2891 -1.13289,0.8778 -1.5418,1.6365 -0.40891,0.7587 -0.63863,1.6252 -0.63863,2.409 0,0 0,0 0,0"
         id="ellipse4850" />
      <path
         inkscape:connector-curvature="0"
         style="opacity:1;fill:none;fill-opacity:1;stroke:#000000;stroke-width:1.02261996;stroke-linejoin:miter;stroke-miterlimit:4;stroke-dasharray:none;stroke-opacity:1"
         d="m 176.12783,1025.1033 c 0,0.7838 0.22972,1.4207 0.63863,1.7704 0.40891,0.3498 0.96351,0.3839 1.5418,0.095 0.57829,-0.2891 1.13289,-0.8778 1.5418,-1.6365 0.40891,-0.7587 0.63863,-1.6252 0.63863,-2.409 0,-0.7839 -0.22972,-1.4207 -0.63863,-1.7705 -0.40891,-0.3498 -0.96351,-0.3838 -1.5418,-0.095 -0.57829,0.2892 -1.13289,0.8778 -1.5418,1.6365 -0.40891,0.7587 -0.63863,1.6253 -0.63863,2.4091 0,0 0,0 0,0"
         id="ellipse4852" />
      <path
         inkscape:connector-curvature="0"
         style="opacity:1;fill:#000000;fill-opacity:1;stroke:none;stroke-width:1;stroke-linejoin:miter;stroke-miterlimit:4;stroke-dasharray:none;stroke-opacity:1"
         d="m 177.05826,1025.3308 c 0,0.2412 0.0659,0.4395 0.18306,0.5514 0.11721,0.1119 0.27618,0.1282 0.44194,0.045 0.16576,-0.083 0.32473,-0.2582 0.44194,-0.4873 0.11721,-0.2291 0.18306,-0.4932 0.18306,-0.7344 0,-0.2411 -0.0658,-0.4394 -0.18306,-0.5513 -0.11721,-0.1119 -0.27618,-0.1282 -0.44194,-0.045 -0.16576,0.083 -0.32473,0.2582 -0.44194,0.4873 -0.11721,0.2291 -0.18306,0.4932 -0.18306,0.7343 0,0 0,0 0,0"
         id="circle4854" />
      <path
         inkscape:connector-curvature="0"
         style="opacity:1;fill:#000000;fill-opacity:1;stroke:none;stroke-width:1;stroke-linejoin:miter;stroke-miterlimit:4;stroke-dasharray:none;stroke-opacity:1"
         d="m 173.30826,1027.2058 c 0,0.2412 0.0659,0.4395 0.18306,0.5514 0.11721,0.1119 0.27618,0.1282 0.44194,0.045 0.16576,-0.083 0.32473,-0.2582 0.44194,-0.4873 0.11721,-0.2291 0.18306,-0.4932 0.18306,-0.7344 0,-0.2411 -0.0658,-0.4394 -0.18306,-0.5513 -0.11721,-0.1119 -0.27618,-0.1282 -0.44194,-0.045 -0.16576,0.083 -0.32473,0.2582 -0.44194,0.4873 -0.11721,0.2291 -0.18306,0.4932 -0.18306,0.7343 0,0 0,0 0,0"
         id="circle4856" />
      <path
         style="fill:#3c3c3c;fill-opacity:1;fill-rule:evenodd;stroke:none;stroke-width:1px;stroke-linecap:butt;stroke-linejoin:miter;stroke-opacity:1"
         d="m 181,1036.3622 7,0 0,2 -7,0 z"
         id="path5483"
         inkscape:connector-curvature="0" />
      <path
         style="fill:#3c3c3c;fill-opacity:1;fill-rule:evenodd;stroke:none;stroke-width:1px;stroke-linecap:butt;stroke-linejoin:miter;stroke-opacity:1"
         d="m 189,1039.3622 c -0.49354,-0.3557 -1,-1 -1,-1 l 0,-2 c 0,0 0.50646,-0.6443 1,-1 0.49354,-0.3557 2,-1 2,-1 l 0,1 c 0,0 -1,1.2546 -1,2 0,0.7454 1,2 1,2 l 0,1 c 0,0 -1.50646,-0.6443 -2,-1 z"
         id="path5485"
         inkscape:connector-curvature="0"
         sodipodi:nodetypes="zcczcczccz" />
      <g
         id="g6095"
         transform="matrix(0.53032969,-0.53032969,0.53033009,0.53033009,-469.34548,569.75166)">
        <g
           id="g6097">
          <ellipse
             style="opacity:1;fill:#000000;fill-opacity:1;stroke:none;stroke-width:0.1;stroke-linejoin:miter;stroke-miterlimit:4;stroke-dasharray:none;stroke-opacity:1"
             id="ellipse6099"
             cx="-639.48065"
             cy="843.12738"
             rx="4"
             ry="3.9999919"
             transform="matrix(0.70710678,-0.70710678,0.70710678,0.70710678,0,0)" />
          <path
             style="fill:none;fill-rule:evenodd;stroke:#d7d7d7;stroke-width:1px;stroke-linecap:butt;stroke-linejoin:miter;stroke-opacity:1"
             d="m 141.17157,1045.5338 5.65686,5.6568"
             id="path6101"
             inkscape:connector-curvature="0" />
        </g>
        <path
           inkscape:connector-curvature="0"
           id="path6103"
           d="m 141.17157,1051.1906 5.65686,-5.6568"
           style="fill:none;fill-rule:evenodd;stroke:#d7d7d7;stroke-width:1px;stroke-linecap:butt;stroke-linejoin:miter;stroke-opacity:1" />
      </g>
      <path
         style="fill:#8c8c8c;fill-opacity:1;fill-rule:evenodd;stroke:none;stroke-width:1px;stroke-linecap:butt;stroke-linejoin:miter;stroke-opacity:1"
         d="m 163,1049.3622 1,0 4,-4 0,-2 -5,5 z"
         id="path6333"
         inkscape:connector-curvature="0" />
    </g>
  </g>
</svg>
